<svg width="28" height="28" fill="none" xmlns="http://www.w3.org/2000/svg"><mask id="a" style="mask-type:alpha" maskUnits="userSpaceOnUse" x="0" y="0" width="28" height="28"><path fill="#C4C4C4" d="M0 0h28v28H0z"/></mask><g mask="url(#a)"><path d="M22.808 25.842a.88.88 0 0 1-.515-.168l-8.701-6.333-8.701 6.335a.876.876 0 0 1-1.391-.708V4.958a2.629 2.629 0 0 1 2.625-2.625h14.931a2.629 2.629 0 0 1 2.625 2.625v20.009a.874.874 0 0 1-.875.875h.002Zm-9.216-8.459c.18 0 .361.056.513.168l7.828 5.697V4.958a.878.878 0 0 0-.875-.875H6.125a.878.878 0 0 0-.875.875v18.29l7.828-5.697a.864.864 0 0 1 .514-.168Z" fill="#000"/></g></svg>