<svg width="28" height="28" fill="none" xmlns="http://www.w3.org/2000/svg"><mask id="a" style="mask-type:alpha" maskUnits="userSpaceOnUse" x="0" y="0" width="28" height="28"><path fill="#C4C4C4" d="M0 0h28v28H0z"/></mask><g mask="url(#a)"><path d="M24.209 9.434h-4.585l.434-4.984a.876.876 0 0 0-.796-.948.877.877 0 0 0-.948.797l-.446 5.134h-7.374l.432-4.982a.876.876 0 0 0-.793-.949.876.876 0 0 0-.949.797l-.446 5.134H4.121a.876.876 0 0 0 0 1.75h4.466l-.642 7.381H3.208a.875.875 0 0 0 0 1.75h4.585l-.434 4.984a.876.876 0 0 0 .796.947l.077.004c.45 0 .83-.344.87-.8l.447-5.134h7.374l-.432 4.982a.877.877 0 0 0 .796.948l.077.004c.449 0 .83-.344.87-.8l.446-5.134h4.616a.877.877 0 0 0 .875-.875.877.877 0 0 0-.875-.875H18.83l.642-7.381h4.736a.875.875 0 0 0 0-1.75Zm-7.135 9.13H9.701l.642-7.38h7.373l-.642 7.38Z" fill="#000"/></g></svg>