<svg width="28" height="28" fill="none" xmlns="http://www.w3.org/2000/svg"><mask id="a" style="mask-type:alpha" maskUnits="userSpaceOnUse" x="0" y="0" width="28" height="28"><path fill="#C4C4C4" d="M0 0h28v28H0z"/></mask><g mask="url(#a)" fill="#000"><path d="M23.042 25.667H4.958a2.629 2.629 0 0 1-2.625-2.625V4.958a2.629 2.629 0 0 1 2.625-2.625h18.084a2.629 2.629 0 0 1 2.625 2.625v18.084a2.629 2.629 0 0 1-2.625 2.625ZM4.958 4.083a.876.876 0 0 0-.875.875v18.084c0 .481.393.875.875.875h18.084a.876.876 0 0 0 .875-.875V4.958a.876.876 0 0 0-.875-.875H4.958Z"/><path d="M19.542 9.917H7.875a.876.876 0 0 1 0-1.75h11.667a.875.875 0 1 1 0 1.75Zm0 4.795H7.875a.875.875 0 0 1 0-1.75h11.667a.875.875 0 0 1 0 1.75Zm-5.834 4.795H7.875a.875.875 0 1 1 0-1.75h5.833a.876.876 0 0 1 0 1.75Z"/></g></svg>