<svg width="28" height="28" fill="none" xmlns="http://www.w3.org/2000/svg"><mask id="a" style="mask-type:alpha" maskUnits="userSpaceOnUse" x="0" y="0" width="28" height="28"><path fill="#C4C4C4" d="M0 0h28v28H0z"/></mask><g mask="url(#a)"><path d="M22.459 3.5H5.541a3.212 3.212 0 0 0-3.208 3.21v14.578A3.213 3.213 0 0 0 5.542 24.5h16.916c1.77 0 3.209-1.44 3.209-3.212V6.711A3.212 3.212 0 0 0 22.458 3.5ZM5.541 5.25h16.916c.806 0 1.459.653 1.459 1.458v.833l-9.392 6.262a.945.945 0 0 1-1.05-.003L4.083 7.541v-.833c0-.805.654-1.458 1.459-1.458Zm16.916 17.498H5.543a1.459 1.459 0 0 1-1.458-1.459V9.592l8.446 5.635a2.642 2.642 0 0 0 2.94.002l8.447-5.636v11.693c0 .805-.654 1.458-1.459 1.458v.004Z" fill="#000"/></g></svg>