<svg width="28" height="28" fill="none" xmlns="http://www.w3.org/2000/svg"><mask id="a" style="mask-type:alpha" maskUnits="userSpaceOnUse" x="0" y="0" width="28" height="28"><path fill="#C4C4C4" d="M0 0h28v28H0z"/></mask><g mask="url(#a)" fill="#000"><path d="M18.958 11.667a2.045 2.045 0 0 0-2.041 2.041c0 1.124.914 2.042 2.041 2.042A2.045 2.045 0 0 0 21 13.708a2.045 2.045 0 0 0-2.042-2.041Zm0 2.916a.875.875 0 1 1 0-1.75.875.875 0 0 1 0 1.75Zm-5.25-2.916a2.045 2.045 0 0 0-2.042 2.041c0 1.124.916 2.042 2.042 2.042a2.045 2.045 0 0 0 2.042-2.042 2.044 2.044 0 0 0-2.042-2.041Zm0 2.916a.875.875 0 1 1 0-1.75.875.875 0 0 1 0 1.75Zm-5.25-2.916a2.045 2.045 0 0 0-2.042 2.041c0 1.124.916 2.042 2.042 2.042a2.045 2.045 0 0 0 2.042-2.042 2.046 2.046 0 0 0-2.042-2.041Zm0 2.916a.875.875 0 1 1 0-1.75.875.875 0 0 1 0 1.75Z"/><path d="M13.708 26.25c-6.916 0-12.541-5.626-12.541-12.542 0-6.916 5.625-12.541 12.541-12.541S26.25 6.792 26.25 13.708 20.624 26.25 13.708 26.25Zm0-23.333c-5.95 0-10.791 4.841-10.791 10.791S7.758 24.5 13.708 24.5 24.5 19.658 24.5 13.708 19.658 2.917 13.708 2.917Z"/></g></svg>